<?xml version="1.0" encoding="UTF-8"?><svg id="Layer_1" xmlns="http://www.w3.org/2000/svg" viewBox="0 0 394.21 541.28"><path d="M269.43,451.5s43.66-11.82,46.26-18.86c.61-1.66.24-3.04.24-3.04-.23-.84-.73-1.64-1.53-2.32l-29.54-25.2c-3.33-2.84-7.11-5.13-11.24-6.55-4.81-1.66-11.24-2.75-18.54-1.04-5.41,1.26-9.72,3.69-13.07,6.37-4.91,3.93-8.56,9.23-10.81,15.1l-12.91,33.79c-.12,1.41-.06,3.66,1.38,5.24,1.86,2.03,5.03,1.89,6.42,1.8,30.62-1.85,43.33-5.29,43.33-5.29Z" fill="#fff"/><path d="M163.23,406.66s24.74,37.87,32.23,38.17c1.76.07,2.96-.71,2.96-.71.73-.48,1.34-1.2,1.74-2.17l14.84-35.88c1.67-4.04,2.68-8.35,2.76-12.72.09-5.09-.86-11.54-4.74-17.96-2.87-4.76-6.52-8.11-10.1-10.46-5.26-3.46-11.42-5.29-17.7-5.61l-36.13-1.84c-1.38.33-3.5,1.07-4.56,2.93-1.36,2.39-.24,5.37.27,6.66,11.22,28.55,18.42,39.58,18.42,39.58Z" fill="#fff"/><path d="M173.04,291.81s-28.37,35.23-26.34,42.45c.48,1.7,1.59,2.6,1.59,2.6.68.55,1.56.9,2.6.98l38.71,3.02c4.36.34,8.77-.03,12.95-1.31,4.87-1.48,10.71-4.39,15.61-10.06,3.64-4.2,5.69-8.7,6.83-12.84,1.66-6.07,1.5-12.5-.14-18.57l-9.42-34.93c-.74-1.21-2.1-3-4.2-3.43-2.7-.55-5.18,1.43-6.25,2.32-23.68,19.49-31.95,29.75-31.95,29.75Z" fill="#fff"/><path d="M285.31,265.65s-42.27-16.1-48.51-11.93c-1.47.98-1.98,2.32-1.98,2.32-.31.82-.38,1.76-.13,2.78l9.09,37.75c1.02,4.25,2.74,8.33,5.24,11.91,2.92,4.17,7.48,8.83,14.39,11.74,5.12,2.16,10.04,2.73,14.32,2.53,6.29-.3,12.35-2.43,17.62-5.87l30.31-19.75c.92-1.07,2.2-2.93,1.96-5.05-.31-2.74-2.96-4.48-4.13-5.23-25.85-16.5-38.17-21.19-38.17-21.19Z" fill="#fff"/><path d="M344.88,364.34s2.25-45.17-3.64-49.83c-1.38-1.09-2.81-1.17-2.81-1.17-.87-.04-1.79.19-2.68.73l-33.1,20.31c-3.73,2.29-7.07,5.18-9.71,8.67-3.07,4.06-6.09,9.84-6.72,17.31-.47,5.54.51,10.39,2.02,14.4,2.22,5.89,6.13,10.99,11.03,14.94l28.15,22.72c1.31.55,3.46,1.19,5.41.31,2.51-1.14,3.35-4.2,3.7-5.55,7.7-29.69,8.36-42.85,8.36-42.85Z" fill="#fff"/><path d="M248.56,484.15c-70,0-126.96-56.95-126.96-126.96s56.95-126.96,126.96-126.96c37.22,0,72.26,16.16,96.45,44.4.71.83,1.95.94,2.78.25,10.1-8.39,20.2-16.77,30.29-25.16.99-.82.94-2.35-.1-3.11l-.02-.02C286.71,170.14,190.69,102.45,99.12,26.56c-5.03-4.17-12.63-2.69-15.75,3.06l-53.64,98.88c-3.02,5.57-.4,12.51,5.54,14.7l150.06,55.28c-62.99,25.18-107.62,86.83-107.62,158.7,0,94.2,76.64,170.84,170.84,170.84,37.5,0,73-11.88,102.81-34.39.88-.67,1.04-1.93.37-2.81l-24.4-31.57c-.67-.86-1.9-1.02-2.77-.37-22.06,16.53-48.29,25.25-76,25.25Z" fill="#fff"/></svg>