<svg width="302" height="105" viewBox="0 0 302 105" fill="none" xmlns="http://www.w3.org/2000/svg">
<path d="M255.146 94.9648C239.484 96.5207 225.479 85.008 223.928 69.3056C222.376 53.5978 233.855 39.5521 249.512 37.9962C257.841 37.1678 266.037 40.0141 272.073 45.8129C272.248 45.9829 272.528 45.9829 272.703 45.8076C274.779 43.6994 276.849 41.5966 278.924 39.4884C279.126 39.2813 279.083 38.9414 278.834 38.7928L278.829 38.7874C256.713 23.6585 243.921 15.3904 221.751 0.399483C220.534 -0.42361 218.866 0.0755561 218.299 1.43499L208.493 24.8161C207.943 26.1331 208.684 27.6306 210.06 27.9917L234.665 32.277C221.132 39.3291 212.517 54.1554 214.111 70.2827C216.202 91.4175 235.047 106.908 256.12 104.815C264.507 103.982 272.189 100.525 278.358 94.8108C278.543 94.6409 278.549 94.3541 278.379 94.1736L272.221 87.6313C272.052 87.4508 271.771 87.4455 271.591 87.6101C267.016 91.8052 261.34 94.3488 255.146 94.9648Z" fill="#E4E7E6"/>
<path d="M251.333 43.3171C251.333 43.3171 261.674 44.3739 270.003 51.8985C270.559 52.403 270.495 53.3004 269.865 53.7093L263.035 58.17C263.035 58.17 258.307 61.0906 254.441 57.3575C253.176 56.1361 252.371 54.5059 252.069 52.7694L250.56 44.1986C250.481 43.726 250.851 43.2959 251.333 43.3171Z" fill="#59B469"/>
<path d="M273.518 58.3186C273.518 58.3186 275.647 68.5197 271.025 78.7632C270.712 79.4482 269.839 79.6553 269.261 79.1774L262.955 73.9999C262.955 73.9999 258.751 70.3623 261.123 65.5406C261.902 63.9582 263.204 62.6996 264.766 61.8818L272.454 57.846C272.878 57.6283 273.397 57.8567 273.518 58.3186Z" fill="#59B469"/>
<path d="M266.349 83.9513C266.349 83.9513 257.248 88.9855 246.129 87.557C245.382 87.4614 244.927 86.6861 245.213 85.9852L248.299 78.418C248.299 78.418 250.534 73.3202 255.823 74.1804C257.56 74.4619 259.143 75.3434 260.377 76.5966L266.476 82.7884C266.815 83.1282 266.752 83.6964 266.349 83.9513Z" fill="#59B469"/>
<path d="M239.722 85.4382C239.722 85.4382 231.96 78.5083 229.603 67.516C229.445 66.7779 230.027 66.0929 230.774 66.13L238.917 66.5336C238.917 66.5336 244.455 66.9478 245.408 72.2422C245.721 73.9786 245.419 75.7682 244.651 77.356L240.86 85.1833C240.654 85.6134 240.098 85.7409 239.722 85.4382Z" fill="#59B469"/>
<path d="M230.678 60.1507C230.678 60.1507 234.697 50.5391 244.307 44.7403C244.953 44.3526 245.79 44.6766 245.996 45.4041L248.257 53.258C248.257 53.258 249.66 58.6479 244.974 61.2658C243.439 62.1261 241.649 62.4182 239.907 62.2058L231.293 61.149C230.816 61.0853 230.514 60.6021 230.678 60.1507Z" fill="#59B469"/>
<g clip-path="url(#clip0_34455_828)">
<path d="M17.4336 99C16.5065 99 15.7339 98.8306 15.1198 98.4959C14.5017 98.1572 14.0183 97.7418 13.6657 97.2498C13.3131 96.7537 13.0912 96.3505 13.004 96.0359C14.2838 94.9592 15.2743 93.8138 15.9795 92.604C16.6848 91.3901 17.1919 90.0351 17.501 88.5309C17.81 87.0267 17.9645 85.3772 17.9645 83.5826V54.966C17.9645 53.7118 18.3171 52.7762 19.0224 52.1712C19.7276 51.5663 20.631 51.2639 21.7364 51.2639C22.8418 51.2639 23.7412 51.5663 24.4504 52.1712C25.1556 52.7762 25.5083 53.7077 25.5083 54.966V83.5826C25.5083 85.3772 25.3537 87.1839 25.0447 89.0027C24.7357 90.8215 24.2602 92.4911 23.6223 94.0195C22.9844 95.5439 22.1564 96.7578 21.1421 97.6571C20.1199 98.5524 18.8877 99 17.4336 99Z" fill="#E4E7E6"/>
<path d="M47.0023 83.5826C44.4428 83.5826 42.1171 82.9414 40.0251 81.663C37.9292 80.3846 36.2889 78.5336 35.0963 76.1099C33.9077 73.6862 33.3094 70.7705 33.3094 67.3587C33.3094 62.2855 34.6882 58.3374 37.4458 55.5104C40.1995 52.6834 43.9159 51.2679 48.5911 51.2679C52.0301 51.2679 54.8194 51.9736 56.9589 53.3891C59.0984 54.8046 60.1682 56.5871 60.1682 58.7406V83.5867H52.6918V58.7366C52.5135 58.3333 52.0737 58.0067 51.3685 57.7607C50.6632 57.5147 49.7361 57.3897 48.5911 57.3897C46.0316 57.3897 44.1021 58.1962 42.8025 59.8134C41.503 61.4305 40.8532 63.9429 40.8532 67.3547C40.8532 70.585 41.4911 73.0772 42.7708 74.8275C44.0506 76.5777 45.9008 77.4528 48.3256 77.4528H60.1682V83.5786H47.0023V83.5826ZM52.0935 99C51.21 99 50.4612 98.8306 49.8431 98.4959C49.225 98.1571 48.7416 97.7418 48.389 97.2498C48.0364 96.7537 47.8145 96.3505 47.7273 96.0359C49.0071 94.9591 49.9976 93.8138 50.7028 92.604C51.4081 91.3901 51.9152 90.0351 52.2243 88.5309C52.5333 87.0266 52.6878 85.3772 52.6878 83.5826V77.4568H60.1642V83.5826C60.1642 85.3772 60.0216 87.1839 59.7324 89.0027C59.4431 90.8215 58.9835 92.4911 58.3417 94.0195C57.7038 95.5439 56.8757 96.7578 55.8614 97.6571C54.8511 98.5524 53.5912 99 52.0935 99ZM60.1642 83.5826V77.4568H66.7967V83.5826H60.1642ZM66.7967 83.5826V77.4568C67.2801 77.4568 67.6248 77.727 67.8229 78.2634C68.021 78.8038 68.12 79.5418 68.12 80.4855C68.12 81.4291 68.021 82.1792 67.8229 82.7398C67.6248 83.3044 67.2801 83.5826 66.7967 83.5826Z" fill="#E4E7E6"/>
<path d="M84.7924 83.5827C84.309 83.5827 83.9643 83.3044 83.7662 82.7398C83.5681 82.1792 83.4691 81.4251 83.4691 80.4855C83.4691 79.5418 83.5681 78.8038 83.7662 78.2634C83.9643 77.723 84.305 77.4568 84.7924 77.4568V83.5827ZM84.7924 83.5827V77.4568H118.795C120.823 77.4568 122.511 77.0536 123.854 76.243C125.197 75.4364 126.204 74.3355 126.865 72.9442C127.527 71.5528 127.86 70.0284 127.86 68.3669C127.86 65.8545 127.273 63.7897 126.109 62.1726C124.94 60.5554 123.462 59.3577 121.675 58.5713C119.888 57.7849 118.026 57.3937 116.085 57.3937C114.012 57.3937 112.138 57.797 110.463 58.6076C108.787 59.4141 107.309 60.4506 106.029 61.7048C104.749 62.963 103.648 64.2857 102.721 65.6771C101.794 67.0684 101.057 68.3589 100.506 69.5485C99.9551 70.7382 99.5669 71.6698 99.349 72.3433L99.6144 63.9954C100.145 62.6484 100.938 61.2329 101.996 59.7529C103.053 58.2729 104.353 56.8896 105.898 55.6112C107.443 54.3328 109.207 53.2883 111.192 52.4818C113.177 51.6752 115.379 51.2719 117.808 51.2719C119.837 51.2719 121.885 51.6067 123.961 52.2801C126.033 52.9536 127.931 54.0102 129.651 55.4459C131.37 56.8815 132.749 58.7003 133.783 60.8982C134.817 63.1001 135.336 65.7456 135.336 68.8428C135.336 70.6374 135.114 72.4118 134.675 74.1621C134.231 75.9123 133.482 77.4931 132.424 78.9087C131.366 80.3242 129.944 81.4574 128.157 82.3083C126.37 83.1632 124.132 83.5867 121.441 83.5867H84.7924V83.5827ZM92.2688 79.4087V49.0418C92.2688 47.5174 92.0825 46.3156 91.7062 45.4405C91.3298 44.5654 90.8781 43.904 90.3511 43.4564C89.8202 43.0087 89.3804 42.67 89.0278 42.4482C89.0714 42.1336 89.2814 41.7182 89.6578 41.202C90.0302 40.6859 90.573 40.214 91.2783 39.7865C91.9835 39.3591 92.8433 39.1453 93.8576 39.1453C95.0026 39.1453 96.0169 39.4397 96.9004 40.0204C97.78 40.6052 98.4892 41.4803 99.0161 42.6458C99.5471 43.8153 99.8086 45.251 99.8086 46.9568V79.4087H92.2688ZM140.293 83.5827C137.912 83.5827 135.772 83.0221 133.874 81.901C131.976 80.7799 130.491 79.2514 129.409 77.3238C128.327 75.3961 127.789 73.1942 127.789 70.7261L135.328 69.109V70.7261C135.328 71.7585 135.503 72.803 135.859 73.8556C136.212 74.9122 136.763 75.7752 137.511 76.4486C138.26 77.1221 139.187 77.4568 140.289 77.4568H143.264V83.5827H140.293ZM143.268 83.5827V77.4568C143.799 77.4568 144.152 77.727 144.326 78.2634C144.5 78.8038 144.592 79.5418 144.592 80.4855C144.592 81.4291 144.504 82.1792 144.326 82.7398C144.152 83.3044 143.795 83.5827 143.268 83.5827Z" fill="#E4E7E6"/>
<path d="M143.268 83.5826C142.785 83.5826 142.44 83.3044 142.242 82.7398C142.044 82.1792 141.945 81.4251 141.945 80.4855C141.945 79.5418 142.044 78.8038 142.242 78.2634C142.44 77.723 142.781 77.4568 143.268 77.4568V83.5826ZM143.268 83.5826V77.4568H145.915C147.107 77.4568 148.066 77.1181 148.791 76.4486C149.52 75.7752 150.059 74.9121 150.412 73.8556C150.764 72.803 150.943 71.7585 150.943 70.7261V55.1031C150.943 54.0263 151.24 53.1149 151.834 52.3769C152.429 51.6349 153.387 51.2679 154.711 51.2679C155.99 51.2679 156.925 51.6389 157.524 52.3769C158.118 53.1189 158.415 54.0263 158.415 55.1031V70.7221C158.415 73.1901 157.876 75.392 156.795 77.3197C155.713 79.2514 154.247 80.7758 152.397 81.8969C150.547 83.0181 148.383 83.5786 145.915 83.5786H143.268V83.5826ZM154.778 46.8883C153.498 46.8883 152.429 46.4487 151.569 45.5736C150.709 44.6985 150.277 43.654 150.277 42.4441C150.277 41.2303 150.705 40.1898 151.569 39.3147C152.429 38.4396 153.475 38 154.711 38C155.899 38 156.925 38.4396 157.785 39.3147C158.645 40.1898 159.077 41.2343 159.077 42.4441C159.077 43.654 158.649 44.6985 157.785 45.5736C156.925 46.4487 155.923 46.8883 154.778 46.8883ZM163.443 83.5826C161.018 83.5826 158.867 83.0221 156.993 81.901C155.119 80.7799 153.641 79.2514 152.559 77.3237C151.478 75.3961 150.939 73.1942 150.939 70.7261H158.415C158.415 71.7585 158.59 72.803 158.946 73.8556C159.299 74.9121 159.861 75.7752 160.634 76.4486C161.407 77.1221 162.342 77.4568 163.447 77.4568H166.422V83.5826H163.443ZM166.419 83.5826V77.4568V83.5826Z" fill="#E4E7E6"/>
<path d="M166.419 83.5826C165.935 83.5826 165.59 83.3044 165.392 82.7398C165.194 82.1792 165.095 81.4251 165.095 80.4854C165.095 79.5418 165.194 78.8038 165.392 78.2634C165.59 77.723 165.931 77.4568 166.419 77.4568V83.5826ZM166.419 77.4568V83.5826V77.4568Z" fill="#E4E7E6"/>
<path d="M165.095 83.5826H167.722H177.54H187.267C192.461 83.5826 196.847 79.6547 197.513 74.4121L197.956 70.9116C198.23 68.7621 197.295 66.6409 195.536 65.4149L173.558 50.1105C173.031 49.7475 172.306 49.9693 172.06 50.5662L167.805 60.8579C167.568 61.4386 167.888 62.1 168.483 62.2572L191.95 71.6335C190.967 73.791 189.707 75.876 187.901 76.8076L185.131 77.3641H167.726H165.194" fill="#E4E7E6"/>
<path d="M92.2648 77.4568H58.8766V83.4697H92.2648V77.4568Z" fill="#E4E7E6"/>
</g>
<defs>
<clipPath id="clip0_34455_828">
<rect width="185" height="61" fill="white" transform="translate(13 38)"/>
</clipPath>
</defs>
</svg>
