<svg xmlns="http://www.w3.org/2000/svg" viewBox="0 0 2369 825" width="2369" height="825">
<g transform="translate(0.000000,825.000000) scale(0.100000,-0.100000)"
fill="#E4E7E6" stroke="none">
<path d="M870 8218 c-29 -16 -53 -39 -67 -64 -12 -21 -196 -453 -410 -959
-353 -838 -388 -925 -387 -975 0 -65 27 -118 77 -149 25 -15 259 -59 987 -185
525 -91 966 -168 979 -171 20 -5 9 -14 -75 -62 -685 -384 -1204 -1049 -1420
-1816 -128 -457 -143 -972 -43 -1447 195 -916 820 -1701 1672 -2099 253 -119
548 -209 828 -253 125 -19 183 -22 444 -23 199 0 332 5 395 13 231 33 477 94
677 167 144 53 421 192 555 278 219 141 442 324 436 359 -5 31 -488 538 -512
538 -12 0 -61 -34 -111 -75 -520 -434 -1224 -608 -1890 -468 -430 90 -811 298
-1130 618 -351 351 -563 773 -636 1270 -21 147 -26 425 -9 565 61 494 274 942
618 1301 366 382 850 621 1380 679 144 16 474 8 597 -15 441 -81 807 -255
1124 -535 44 -39 86 -70 93 -70 7 0 127 114 266 253 173 173 252 259 252 274
0 15 -19 35 -62 66 -169 119 -1216 822 -2767 1857 -1644 1097 -1715 1144
-1765 1148 -40 3 -61 -2 -96 -20z"/>
<path d="M6852 4560 c-20 -13 -42 -39 -55 -68 l-22 -47 0 -1510 0 -1510 28
-48 c45 -76 117 -102 209 -77 41 12 91 50 111 84 9 16 13 186 17 681 l5 660
788 3 787 2 0 -647 c0 -617 1 -650 20 -690 20 -45 60 -76 123 -95 68 -21 175
21 211 83 14 24 16 175 16 1557 l0 1529 -23 34 c-32 49 -98 79 -170 79 -76 0
-118 -24 -149 -88 l-23 -47 -3 -677 -3 -678 -789 0 -790 0 0 689 0 688 -23 34
c-49 74 -190 105 -265 59z"/>
<path d="M15396 4480 c-38 -12 -64 -37 -90 -85 -20 -39 -21 -54 -24 -419 l-3
-379 -142 5 c-163 7 -206 -3 -248 -52 -80 -94 -59 -225 46 -282 48 -26 51 -26
197 -21 l148 6 0 -679 c1 -738 3 -782 55 -885 105 -209 244 -331 431 -379 60
-16 110 -20 228 -20 138 0 154 2 190 23 80 45 109 158 64 247 -39 76 -63 86
-240 94 -137 6 -159 9 -207 32 -60 30 -104 84 -136 167 -19 50 -20 82 -23 725
l-3 674 224 -4 224 -3 42 28 c86 57 105 147 53 242 -50 92 -56 93 -317 87
l-225 -5 0 388 c0 373 -1 389 -20 421 -36 57 -154 96 -224 74z"/>
<path d="M22062 3653 c-46 -23 -78 -69 -97 -138 -23 -89 -23 -2005 0 -2083 18
-58 53 -106 98 -129 65 -33 198 6 237 70 19 31 20 54 20 572 0 583 6 685 46
803 60 178 222 378 369 454 128 66 201 83 365 83 132 0 155 -3 264 -33 65 -17
138 -32 161 -32 86 0 155 83 155 185 0 71 -43 138 -104 165 -137 58 -330 100
-466 100 -95 0 -246 -23 -330 -50 -103 -33 -278 -124 -365 -190 -44 -33 -83
-60 -87 -60 -5 0 -8 42 -8 94 0 88 -2 97 -27 127 -33 39 -115 79 -163 79 -19
0 -50 -8 -68 -17z"/>
<path d="M10445 3635 c-193 -36 -351 -105 -509 -224 -204 -154 -348 -346 -423
-566 -74 -216 -71 -516 7 -755 60 -184 147 -317 311 -475 249 -241 504 -336
861 -322 265 10 468 87 684 258 41 33 76 59 79 59 3 0 3 -40 -1 -88 -5 -73 -4
-94 11 -123 24 -48 44 -68 87 -90 88 -45 217 -1 254 88 20 48 20 1073 -1 1223
-27 204 -87 362 -190 505 -194 268 -415 426 -696 496 -113 27 -360 35 -474 14z
m441 -392 c167 -55 369 -213 453 -356 140 -238 148 -554 20 -797 -68 -129
-236 -293 -364 -356 -121 -59 -215 -77 -379 -72 -166 6 -253 29 -376 102 -190
112 -332 285 -383 466 -24 82 -39 227 -32 295 10 89 42 219 66 268 81 160 239
333 365 399 138 71 216 88 399 84 125 -2 150 -6 231 -33z"/>
<path d="M12375 3636 c-39 -17 -69 -51 -92 -101 -17 -38 -18 -103 -21 -1044
-3 -1107 -5 -1073 59 -1145 54 -62 146 -72 231 -24 80 45 76 10 81 673 4 547
5 597 24 680 25 109 62 186 143 293 100 133 203 212 340 263 406 148 863 -65
996 -463 49 -149 54 -217 54 -801 0 -437 3 -544 14 -571 30 -72 138 -120 218
-97 57 17 107 56 124 97 21 50 20 1147 -1 1286 -65 436 -413 818 -853 935 -86
23 -117 27 -267 27 -110 1 -191 -4 -230 -13 -184 -42 -355 -123 -502 -240 -29
-22 -55 -41 -58 -41 -3 0 -5 42 -5 94 0 88 -2 97 -27 127 -33 39 -116 79 -163
79 -19 -1 -48 -7 -65 -14z"/>
<path d="M17489 3626 c-252 -45 -446 -145 -630 -326 -172 -170 -268 -326 -325
-531 -32 -116 -44 -348 -24 -480 23 -160 96 -344 197 -499 60 -91 196 -220
317 -302 231 -154 417 -206 696 -195 305 12 560 128 790 357 249 248 361 559
330 917 -17 197 -79 369 -195 544 -169 254 -442 441 -739 505 -98 22 -322 27
-417 10z m381 -387 c215 -54 429 -229 529 -435 86 -177 95 -431 21 -627 -52
-139 -225 -343 -352 -415 -188 -108 -459 -129 -669 -52 -156 57 -344 212 -427
352 -118 200 -136 502 -41 708 48 104 133 223 213 297 188 175 456 239 726
172z"/>
<path d="M20149 3626 c-252 -45 -446 -145 -630 -326 -172 -170 -268 -326 -325
-531 -32 -116 -44 -348 -24 -480 23 -160 96 -344 197 -499 85 -130 292 -304
465 -391 280 -142 661 -146 967 -11 243 107 475 329 593 567 64 129 93 236
107 402 24 275 -39 521 -194 754 -169 254 -442 441 -739 505 -98 22 -322 27
-417 10z m381 -387 c215 -54 429 -229 529 -435 86 -177 95 -431 21 -627 -52
-139 -225 -343 -352 -415 -188 -108 -459 -129 -669 -52 -156 57 -344 212 -427
352 -118 200 -136 502 -41 708 48 104 133 223 213 297 188 175 456 239 726
172z"/>
</g>
<g transform="translate(0.000000,825.000000) scale(0.100000,-0.100000)"
fill="#70B270" stroke="none">
<path d="M5235 4818 l-180 -183 183 180 c100 99 182 181 182 182 0 8 -18 -10
-185 -179z"/>
<path d="M3336 4819 c-14 -23 -11 -50 53 -409 38 -212 78 -410 90 -441 12 -32
39 -84 61 -117 152 -236 407 -317 677 -216 61 22 625 380 651 412 6 9 12 34
12 57 0 34 -6 47 -37 76 -196 184 -546 392 -848 504 -205 76 -455 142 -581
152 -57 5 -63 4 -78 -18z"/>
<path d="M2726 4663 c-336 -228 -622 -535 -841 -905 -129 -216 -148 -273 -102
-301 28 -18 692 -98 807 -97 280 1 501 172 556 430 29 135 18 204 -86 565 -96
333 -109 368 -135 379 -49 19 -85 6 -199 -71z"/>
<path d="M6913 4583 c15 -2 39 -2 55 0 15 2 2 4 -28 4 -30 0 -43 -2 -27 -4z"/>
<path d="M8873 4583 c15 -2 37 -2 50 0 12 2 0 4 -28 4 -27 0 -38 -2 -22 -4z"/>
<path d="M9095 2935 c0 -836 1 -1177 2 -757 2 420 2 1104 0 1520 -1 416 -2 73
-2 -763z"/>
<path d="M6765 2930 c0 -806 1 -1135 2 -733 2 403 2 1063 0 1465 -1 403 -2 74
-2 -732z"/>
<path d="M15270 3950 l0 -339 -107 -4 -108 -3 113 -2 112 -2 0 345 c0 190 -2
345 -5 345 -3 0 -5 -153 -5 -340z"/>
<path d="M4727 3537 c-181 -95 -357 -194 -392 -220 -236 -175 -301 -488 -153
-735 55 -90 92 -126 342 -330 308 -253 294 -242 328 -242 47 0 68 18 99 85 80
177 152 435 190 685 38 248 31 776 -13 890 -11 29 -25 40 -53 39 -11 0 -168
-78 -348 -172z"/>
<path d="M10618 3653 c18 -2 45 -2 60 0 15 2 0 4 -33 4 -33 0 -45 -2 -27 -4z"/>
<path d="M13388 3653 c18 -2 45 -2 60 0 15 2 0 4 -33 4 -33 0 -45 -2 -27 -4z"/>
<path d="M15722 3603 c48 -2 129 -2 180 0 51 1 12 3 -87 3 -99 0 -141 -2 -93
-3z"/>
<path d="M22324 3455 c0 -49 1 -71 3 -48 2 23 2 64 0 90 -2 26 -3 8 -3 -42z"/>
<path d="M12632 3438 c-2 -89 4 -103 29 -70 13 15 12 16 -3 4 -16 -13 -17 -7
-21 70 l-3 83 -2 -87z"/>
<path d="M16835 3288 l-50 -53 53 50 c28 27 52 51 52 52 0 8 -9 -1 -55 -49z"/>
<path d="M19495 3288 l-50 -53 53 50 c28 27 52 51 52 52 0 8 -9 -1 -55 -49z"/>
<path d="M13367 3273 c18 -2 50 -2 70 0 21 2 7 4 -32 4 -38 0 -55 -2 -38 -4z"/>
<path d="M15275 2600 c0 -360 1 -508 2 -327 2 180 2 474 0 655 -1 180 -2 32
-2 -328z"/>
<path d="M443 3165 c0 -33 2 -45 4 -27 2 18 2 45 0 60 -2 15 -4 0 -4 -33z"/>
<path d="M12880 3065 c-24 -25 -42 -45 -39 -45 3 0 25 20 49 45 24 25 42 45
39 45 -3 0 -25 -20 -49 -45z"/>
<path d="M11220 3025 c30 -30 57 -55 59 -55 3 0 -19 25 -49 55 -30 30 -57 55
-59 55 -3 0 19 -25 49 -55z"/>
<path d="M18235 3020 c27 -27 51 -50 54 -50 3 0 -17 23 -44 50 -27 28 -51 50
-54 50 -3 0 17 -22 44 -50z"/>
<path d="M20895 3020 c27 -27 51 -50 54 -50 3 0 -17 23 -44 50 -27 28 -51 50
-54 50 -3 0 17 -22 44 -50z"/>
<path d="M1703 3028 c-34 -38 -35 -60 -4 -179 114 -440 377 -906 699 -1239 64
-66 82 -80 108 -80 17 0 38 8 46 18 27 30 327 661 350 735 32 101 32 263 1
362 -44 139 -139 246 -278 313 -103 51 -160 60 -475 77 -403 21 -422 20 -447
-7z"/>
<path d="M443 2890 c0 -36 2 -50 4 -32 2 17 2 47 0 65 -2 17 -4 3 -4 -33z"/>
<path d="M7537 2723 c215 -2 571 -2 790 0 219 1 43 2 -392 2 -434 0 -614 -1
-398 -2z"/>
<path d="M9454 2480 c0 -52 1 -74 3 -47 2 26 2 68 0 95 -2 26 -3 4 -3 -48z"/>
<path d="M16494 2465 c0 -60 1 -84 3 -52 2 32 2 81 0 110 -2 29 -3 3 -3 -58z"/>
<path d="M19154 2465 c0 -60 1 -84 3 -52 2 32 2 81 0 110 -2 29 -3 3 -3 -58z"/>
<path d="M9823 2470 c0 -30 2 -43 4 -27 2 15 2 39 0 55 -2 15 -4 2 -4 -28z"/>
<path d="M22325 1970 c0 -305 1 -430 2 -277 2 152 2 402 0 555 -1 152 -2 27
-2 -278z"/>
<path d="M12635 1955 c0 -291 1 -409 2 -262 2 148 2 386 0 530 -1 144 -2 24
-2 -268z"/>
<path d="M3540 2419 c-67 -13 -181 -73 -239 -125 -98 -88 -132 -150 -271 -489
-72 -178 -130 -332 -130 -349 1 -70 34 -84 231 -98 338 -25 744 32 1094 152
133 46 317 125 347 149 47 38 35 55 -223 321 -134 139 -275 276 -312 306 -149
117 -330 166 -497 133z"/>
<path d="M18843 2385 c0 -27 2 -38 4 -22 2 15 2 37 0 50 -2 12 -4 0 -4 -28z"/>
<path d="M21503 2385 c0 -27 2 -38 4 -22 2 15 2 37 0 50 -2 12 -4 0 -4 -28z"/>
<path d="M9810 1625 c35 -36 67 -65 69 -65 3 0 -24 29 -59 65 -35 36 -67 65
-69 65 -3 0 24 -29 59 -65z"/>
<path d="M17638 1663 c17 -2 47 -2 65 0 17 2 3 4 -33 4 -36 0 -50 -2 -32 -4z"/>
<path d="M20298 1663 c17 -2 47 -2 65 0 17 2 3 4 -33 4 -36 0 -50 -2 -32 -4z"/>
<path d="M16008 1653 c23 -2 61 -2 85 0 23 2 4 4 -43 4 -47 0 -66 -2 -42 -4z"/>
<path d="M11434 1598 c-4 -6 -3 -8 4 -4 7 4 12 -6 15 -26 4 -33 4 -33 5 5 2
36 -10 49 -24 25z"/>
<path d="M5160 1228 c41 -45 50 -53 50 -45 0 2 -21 23 -47 47 l-48 45 45 -47z"/>
<path d="M5330 1048 c24 -27 45 -48 47 -48 8 0 0 9 -44 50 l-48 45 45 -47z"/>
<path d="M3383 3 c48 -2 125 -2 170 0 45 1 6 3 -88 3 -93 0 -130 -2 -82 -3z"/>
</g>
</svg>
